<?xml version="1.0" encoding="utf-8"?>
<!-- Generator: Adobe Illustrator 19.0.0, SVG Export Plug-In . SVG Version: 6.00 Build 0)  -->
<svg version="1.1" id="svg2210" xmlns:svg="http://www.w3.org/2000/svg"
	 xmlns="http://www.w3.org/2000/svg" xmlns:xlink="http://www.w3.org/1999/xlink" x="0px" y="0px" viewBox="684 -986.4 2592 2777.4"
	 style="enable-background:new 684 -986.4 2592 2777.4;" xml:space="preserve">
<style type="text/css">
	.st0{fill:#2B9158;}
	.st1{fill:#5A4336;}
</style>
<g id="g2219" transform="translate(-30.857143,-10.285714)">
	<path id="path2225" class="st0" d="M2148.9,1743.6c-0.2-0.2-22.9-0.9-50.4-1.5c-36.6-0.8-54.4-1.7-66.5-3.1
		c-18.4-2.1-42.1-4.6-52-5.4c-3.6-0.3-11.4-1-17.5-1.6c-6.1-0.6-20-1.7-31-2.5c-11-0.8-29.2-2.1-40.5-3
		c-59.2-4.4-75.5-5.2-130.9-6.6c-33.2-0.8-40.8-1.3-42.8-2.5c-1.3-0.8-2.3-2.2-2.3-2.9c0-1.5,4-12.6,9.7-27
		c15.1-38.1,39.7-107.8,52.2-147.5c5.8-18.4,22-76.6,25.1-90c1.2-5.2,5-21.4,8.5-36s7.3-31,8.4-36.5s4.6-21,7.6-34.5
		c5.9-26.5,15.5-74.7,18-90c0.8-5.2,2.7-16.7,4.1-25.5c5.2-33.2,7.7-48.6,11.1-69.5c1.9-11.8,4.4-27.1,5.4-34
		c1-6.9,3.5-21.9,5.6-33.5c3.4-19.7,5-29.3,7.5-46c0.6-3.9,1.4-9.3,1.9-12c7.6-46.6,15.5-91.7,18.6-107c1.4-6.6,4-19.6,5.9-29
		c7-34.9,9.7-47.4,13.7-63c4-15.8,5.5-22,8.5-36.3c1.2-5.9,1.3-7.9,0.4-10.2c-1.9-4.7-28.8-28.5-86-76.4
		c-11.8-9.9-25.5-21.6-30.5-26c-5-4.4-13.1-11.4-17.9-15.6s-11.2-9.5-14-12c-2.8-2.5-9.1-7.9-14-12c-4.9-4.1-11-9.3-13.5-11.6
		c-4-3.6-24.8-20.9-39.5-32.9c-5.5-4.5-22.7-19-34.8-29.4c-14.8-12.7-31.1-27.8-53.1-49.2c-12.1-11.8-28.1-26.9-35.5-33.5
		c-12.6-11.3-30.6-29.1-38.2-37.9c-1.9-2.2-5.1-5.1-7.1-6.6c-2-1.5-8.3-8-14-14.5c-5.7-6.5-15.6-17.2-22.2-23.9
		c-16-16.3-20-21.3-21.5-26.6c-2.8-9.9-8.7-23-28.2-62.5c-9-18.1-13.3-25.9-22.2-39.3c-5-7.5-6.8-10.7-17.4-30.9
		c-3.4-6.5-8.5-15.6-11.4-20.3c-2.8-4.7-5.4-9.1-5.7-10c-0.3-0.8-4.1-7.9-8.4-15.7c-4.3-7.8-7.8-14.9-7.8-15.8c0-2.1,2.2-2,5.1,0.3
		c1.3,1,6.4,4.2,11.4,7.1c14.5,8.5,27.1,16.8,41.4,27c7.3,5.3,16.1,11.5,19.5,13.9c8.6,6,22,17.7,39.3,34.5
		c36.2,35,50.6,48.1,70.3,64.3c42.8,35.1,56.1,45.8,63.5,50.8c10.7,7.3,19.3,13.4,29.6,21.2c17.6,13.3,29.4,21.2,36.9,25
		c4.1,2.1,9.3,4.9,11.5,6.4c2.2,1.5,6.9,4.2,10.5,6c8.7,4.5,32.4,17.9,49,27.7c7.4,4.4,17.6,10.2,22.5,12.9c4.9,2.7,10.8,5.9,13,7.2
		c8.2,4.7,14.5,7.4,32,13.8c22.2,8.2,47.1,16.5,59,19.8c4.9,1.4,16.2,4.7,25,7.5c20.6,6.4,36.4,9.7,38.1,8
		c1.1-1.1,3.5-13.8,5.8-30.7c0.8-6-1.1-85.5-3-120.5c-0.8-15.4-1.9-37.4-2.5-49s-1.5-24.4-2-28.5s-2.1-16.4-3.5-27.4
		c-2.5-19.7-3-22.4-8.5-46.6c-1.6-6.9-3.8-17.2-4.9-23c-8.4-43.9-13.9-66.3-19.7-80.7c-8.8-21.9-25.6-56.4-38.4-78.8
		c-1.3-2.2-3.9-6.9-5.9-10.5s-7.7-13.2-12.7-21.5c-5-8.3-10.2-17-11.6-19.5c-19.9-34.9-22.1-38.5-42.7-70
		c-3.4-5.1-34-46.2-44.4-59.5c-6.4-8.2-39-44.8-69.1-77.5c-5.8-6.3-18.2-20.7-27.5-32c-9.3-11.3-24.6-28.4-33.9-38
		c-9.3-9.6-16.7-17.8-16.5-18.3c1.3-2,37.7,8.6,54.9,16c11.2,4.9,34.4,17.8,44.4,24.7c4.1,2.9,9.5,6.2,11.9,7.5
		c2.4,1.2,11.5,8.8,20.1,16.9c34.4,32.2,54.8,51.7,60.4,58c3.2,3.6,17.9,19.2,32.5,34.6c14.6,15.4,32.5,34.5,39.6,42.4
		c7.2,7.9,15.7,17.4,19,21s12.1,13.4,19.5,21.6s17.6,19.2,22.5,24.4c4.9,5.2,14.6,15.8,21.5,23.5c12,13.5,51.5,53.5,69,70.1
		c4.7,4.4,10.8,11.1,13.5,14.8c15.4,20.9,20.3,27.5,22.8,30.6l2.8,3.5l2.2-2.6c1.2-1.5,4-5.5,6.2-9c3.4-5.4,7.1-10.6,20.1-28
		c17.1-23,46.1-55.1,53-58.8c4.3-2.3,6.5,1.3,13.3,21c5.7,16.6,15.1,42.8,17.2,47.8c2.4,5.7,1.8,6.7-26.6,41.6
		c-5,6.1-10.6,13.4-12.4,16.1c-1.9,2.8-4.6,6.6-6,8.5c-14,18.5-42.4,57.1-47.3,64.3l-2.8,4.2l0.6,14.7c0.3,8.1,1,17.1,1.6,20
		c1.5,8.4,2.2,46.1,1,58.3c-0.6,6.1-1.6,20.9-2.2,33c-1.5,29.2-0.4,43.7,4.6,58.5c1.9,5.8,4.1,11.6,4.9,13c0.8,1.4,2.4,5.9,3.6,10
		c1.2,4.1,3.4,11.3,5,16s4,12.3,5.4,17c10.5,33.8,15.3,46.3,25.2,66.5c5.7,11.6,11.7,22.6,13.3,24.5l2.9,3.5l5.3-1.9
		c8-2.8,36.9-17.1,57.7-28.6c10.1-5.6,28.3-15,40.5-21c21.2-10.4,27.2-13.2,45.1-20.7c12.5-5.3,28.3-16.8,46-33.5
		c22.1-20.9,33.8-34.9,42.6-51.1c2.7-5,4.9-9.3,4.9-9.5c0-0.2,3.6-7.8,8.1-16.9c8.1-16.5,8.1-16.5,13.8-19.8
		c3.1-1.8,7.5-3.9,9.6-4.6c2.2-0.7,5.5-2.2,7.4-3.5c1.9-1.2,4.8-2.6,6.5-3c5.4-1.4,18.8-1.7,34.9-0.7l15.8,1l22.1,11.2
		c12.2,6.2,23.3,12,24.6,12.9c1.4,0.9,3.4,2,4.4,2.4c2.9,1.1,18.2,10.4,19.4,11.9c0.8,1,0.2,2.8-2.5,7.3c-4.9,8-19.4,33.6-25.8,45.7
		c-5,9.3-13.6,22.6-21.4,33.3c-2,2.8-7.7,10.6-12.6,17.5c-4.9,6.9-11.6,16.2-14.9,20.7c-3.3,4.5-6.8,9.4-7.8,11
		c-1,1.6-3.2,4.9-5,7.3c-26,36.1-32.7,46-32.7,48.2c0,3.5-26.6,32-38,40.8c-4.1,3.2-8.6,6.3-10,7.1s-4.1,2.5-6,4
		c-6.3,4.8-24.7,17.4-33,22.5c-4.5,2.8-16.3,10.4-26.4,17c-10,6.6-20.2,13.1-22.5,14.5c-4.7,2.7-16.9,10.7-24.7,16.2
		c-2.7,1.9-8.1,5.2-11.9,7.3c-3.9,2.1-12.2,7.2-18.5,11.4c-18.7,12.3-17.1,11.2-33.5,20.3c-2.2,1.2-10.7,5.5-18.9,9.4
		c-8.2,4-15.3,7.9-15.8,8.7c-0.5,0.9-0.2,18,0.6,40.4c4.8,125.4,4.3,166.8-2.5,214.8c-1.6,11.5-2.9,21.8-5.5,46
		c-1.4,12.6-2.9,26.4-3.5,30.5c-2,14.8-8.1,77.8-9,91.5c-2.7,44.7-5,94.9-6,129.5c-0.6,21.7-1.6,56.8-2.2,78
		c-2.6,91.9-2.5,188,0.1,211c0.6,5.2,1.6,15.1,2.2,22c1.6,19,2.8,30.1,3.4,34c0.3,1.9,1.5,10,2.6,18c1.1,8,2.5,17,2.9,20
		s2,12.7,3.3,21.5c3.4,21.8,4.2,33.1,2.6,35c-1,1.2-3.8,1.5-13,1.5C2154.6,1744,2149.1,1743.8,2148.9,1743.6z M1546.5,999.1
		c-1.1-0.5-11.5-2.1-23-3.6c-20.7-2.7-21.1-2.8-33-8c-13.5-6-36.4-16.8-55.9-26.5l-13.1-6.5l-8.3-16.7l-8.3-16.7l2.1-3.8
		c1.1-2.1,4.3-6.7,7-10.3c2.7-3.6,7-9.9,9.6-14c17.8-28.2,26.4-41.3,30.8-46.4c10.9-12.7,45.3-40,66.9-53.1c1.8-1.1,5.6-3.7,8.5-5.8
		c2.9-2.1,5.5-3.8,5.8-3.8s5.4-2.8,11.2-6.2c5.8-3.4,15.3-8.6,21.1-11.6s11.7-6.1,13.2-6.8c3.4-1.8,40.3-5,67.8-5.9
		c22.1-0.7,27.7-0.2,63,6.1c31,5.5,35.5,6.8,60.4,16.7c7.1,2.8,8.4,3.7,10.3,7.2c3,5.5,10.3,32.5,11,40.7c0.6,7.3,0.2,8.3-17.1,45.1
		c-3.1,6.5-5.6,12.1-5.6,12.4c0,1.9-16.6,37.8-19.3,41.6c-2.3,3.4-24.4,20-39.2,29.5c-6.1,3.9-13.7,8.8-17,10.9
		c-8,5.2-36.7,16.3-55,21.3c-4.4,1.2-11.8,3.4-16.5,5c-11,3.6-24,5.7-46.4,7.7C1552,999.9,1548.8,1000.1,1546.5,999.1z M2582,989
		c-20.1-1.8-62.9-7.5-67.4-9c-32-10.1-64.8-21.9-78.1-28.2c-10.2-4.8-26.2-13.9-30.9-17.5c-5-3.9-12.7-14.3-26.1-35.4
		c-3.9-6.1-8-12.3-9.2-13.8c-1.2-1.5-3.9-5.5-6-8.8s-5.8-9.1-8.4-12.9c-5-7.4-16.6-26.2-20.6-33.2c-1.4-2.4-4.4-7.4-6.7-11
		c-5.2-8-9.5-16.5-9.5-18.6c0-2.8,27.6-18.5,66.4-37.7c26.7-13.2,29.8-14.3,60.1-22.3c4.9-1.3,16.4-4.4,25.5-7
		c41.5-11.6,38.1-10.9,75.5-14.6c11.6-1.1,25.7-2.6,31.5-3.1c12.8-1.3,21-0.3,46,5.3c9.6,2.2,18.6,4.2,20,4.5
		c3.7,0.8,27.6,14.3,44.5,25.3c10.1,6.5,22.9,16.5,31,24.1c3.9,3.6,12.6,11.5,19.5,17.6c16.2,14.3,31.6,29.7,46.6,46.5
		c11.6,13,23.4,26.6,26.3,30.3c1.6,2.1-0.1,4.1-19.9,23.2c-22.5,21.7-37.1,32.4-68.4,50c-31.5,17.8-58.8,29.3-92.4,39.2
		c-10.3,3-36.2,8.4-39.3,8.2C2590.5,989.7,2586.1,989.4,2582,989z M1254,649.3c-9.3-1-40.3-4.5-46.8-5.3c-8.9-1.2-40.1-6.9-41.2-7.5
		c-0.4-0.3-4.1-1.1-8.2-1.9c-5.6-1.1-13.3-4.3-31.8-13.1c-13.4-6.4-24.9-12-25.5-12.4c-0.6-0.4-9.1-4.9-19-10
		c-23.9-12.3-28.5-15-28.5-16.4c0-2.7,19.3-29.3,31.4-43.1c21.3-24.4,33.8-36.5,57.6-55.5c5.8-4.6,12.3-10,14.6-12
		c8.3-7.2,24.8-20.4,30.8-24.7c19.9-14.2,23.2-15.9,42-22.2c27.8-9.2,30.3-9.6,58-8.2c12.8,0.6,25.7,1.6,28.7,2.2
		c6.2,1.2,16.6,5.6,38.5,16.3c8.3,4,21.5,10.4,29.5,14.1c23,10.9,38.2,20,49.6,29.8c3.9,3.4,11.7,9.9,17.3,14.5
		c6.8,5.6,12.2,11.1,16.2,16.5l6,8.1l-0.6,6.5c-0.3,3.6-0.6,10.6-0.6,15.6c0,9-0.1,9.2-4.1,15.1c-4.3,6.4-8.5,10.6-24.6,24.8
		c-17.6,15.5-20.4,17.5-36.3,25.4c-15.3,7.7-44.3,23.2-46.4,24.9c-1.8,1.4-53.4,13.9-62.3,15.1c-4.5,0.6-10.7,1.7-13.8,2.5
		C1279.3,649.9,1263.5,650.3,1254,649.3z M2850.5,432.4c-2.8-0.2-11.5-0.8-19.5-1.4c-8-0.5-20.1-1.7-27-2.6
		c-12.7-1.6-40.2-6.9-42.1-8c-0.6-0.3-6.5-1.9-13.2-3.5c-11.8-2.8-12.5-3.1-24.7-11.3c-6.9-4.6-15.9-10.6-20-13.4
		c-41.2-27.4-39.8-26.3-67.1-55.3c-21.7-23.1-24.1-25.7-31.3-35.2c-7.6-10-7.7-10.3-4.7-24.8c1.1-5.2,2.7-13.5,3.6-18.5
		c2.2-11.9,3.4-14.5,8.5-18.6c2.3-1.9,7.4-6.1,11.3-9.4s9.6-8,12.6-10.5c5.4-4.4,33.7-25,38.5-28c1.3-0.8,6.8-4.5,12.2-8.1
		c21-14.2,35.8-20.4,60.3-25.5c14.1-2.9,25.7-2.9,49,0c13.4,1.7,15.4,2.1,42,10.2c9.6,2.9,22.2,6.7,28,8.4c15.7,4.6,44,17,53.4,23.4
		c3.2,2.2,11,9.2,17.1,15.6c14.9,15.4,53.1,58.4,54.9,61.9c2.4,4.6,3.9,23.2,3.3,40.3l-0.6,15.6l-11.2,21.9
		c-6.2,12-12.1,23.4-13.3,25.4c-6.1,10.3-23.6,35.6-29.7,43l-3.6,4.3l-22.4,1.8C2892,431.9,2859.4,433.1,2850.5,432.4z M881.5,333.5
		c-35-6.9-56.4-12.7-61.2-16.7c-2.6-2.2-1.4-6.3,7.7-26.8c13-29.4,21.2-44.1,42-75.5c13.4-20.3,32.2-41.5,49.6-55.9
		c16.4-13.6,19.2-15.7,28.5-21.4c4.7-2.9,9.6-6.1,11-7.1c4.4-3.2,20.8-13.9,23.8-15.4c4.8-2.5,29.3-10.4,38.7-12.6
		c4.9-1.1,16.2-3.7,25-5.6l16-3.6l29.5,0.6c38.4,0.8,97.7,5.6,114.9,9.2c4.8,1,2.2,9.5-12.8,41.5c-4.8,10.2-11.1,22.8-14,28
		c-2.9,5.2-7.2,12.8-9.5,16.9c-5.8,10.3-17.1,28.4-21.8,34.8c-6.1,8.2-44.1,45.7-52.9,52c-25.8,18.7-33.2,23.4-48.8,30.9
		c-19.4,9.3-30.2,13.9-36.3,15.3c-2.9,0.7-8,2.1-11.3,3.1c-3.3,1-9.6,2.3-14,2.9c-4.4,0.6-10.5,1.5-13.5,2
		C950.1,333.8,894.2,336,881.5,333.5z M2297,259.5c-4.1-0.7-10.6-2.2-14.5-3.4c-7.3-2.3-9.5-3.3-56-26
		c-49.5-24.2-59.3-29.2-60.7-30.8c-1.8-2.2,5.7-16.6,18.6-35.8c14.9-22.3,33.7-40.7,66.6-65.5c6.9-5.2,17.1-12.9,22.7-17.2
		c11.9-9,30.5-21.4,38.3-25.3c8-4,14.8-6.2,27.3-8.6c10.2-1.9,14.4-2.1,49.1-2c20.9,0,44.3,0.4,52,0.7c14,0.7,14,0.7,29.5,6.5
		c8.5,3.2,18.6,7.2,22.5,8.8c3.8,1.6,11.6,4.8,17.2,7c5.6,2.2,14.1,5.8,18.9,8.1c4.8,2.2,13.9,6.3,20.3,9
		c28.5,12,39.6,17.6,39.6,19.7c0,2.3-21.2,27.1-35.5,41.3c-10.2,10.2-35.7,32.7-48,42.5c-4.2,3.3-12.9,9.4-19.3,13.5
		c-41.6,26.6-49.5,31.3-77.1,45.4c-16.5,8.4-17.1,8.7-26.5,9.6c-5.3,0.5-15.9,1.6-23.6,2.5C2342,261.2,2308,261.3,2297,259.5z
		 M1736.5,249.5c-1.1-0.2-7.4-1.4-14-2.6c-6.6-1.2-18.3-3.7-26-5.6c-7.7-1.9-16.5-4-19.5-4.7s-6.6-2-8-2.8c-1.4-0.9-5.2-2.5-8.5-3.6
		c-10-3.3-22.9-8.2-24-9.1c-0.6-0.4-2.3-1.1-3.8-1.5s-5.1-1.7-8-3c-2.9-1.3-9.9-4.5-15.7-7.1c-15.4-6.9-44.3-21.5-47.6-24.1
		c-2.5-2-2.7-2.5-1.7-4.8c2.1-4.6,32.2-43.5,40.1-51.8c0.9-0.9,7.9-8.6,15.6-17c22-24.1,24.9-26.4,47.5-37.7
		c10.7-5.4,22.9-10.8,27-12c10.1-3,28.8-8.7,38-11.7c11.7-3.8,21.3-5.5,24.8-4.5c7.9,2.3,49.3,22.3,60.5,29.3
		c23.9,15,27.4,17.6,46,35.1c12.4,11.7,26.8,27.6,26.8,29.6c0,0.7-2.1,4.5-4.8,8.6c-2.6,4.1-6.7,10.9-9.1,15.2
		c-15.4,27.3-17.3,29.7-39.5,47.8c-5.4,4.4-14.4,11.8-20,16.5c-10.7,8.9-11,9.1-34.6,16.5C1766.5,248.1,1743,250.9,1736.5,249.5z
		 M1364.5,73.1c-4.4-0.4-9.6-1.3-11.5-1.9s-8.1-1.6-13.7-2.2c-5.6-0.6-13.7-2.2-18-3.5c-10.6-3.2-34.6-12.6-43.2-16.9
		c-13.4-6.6-28.2-19.4-45-39.1c-4.7-5.5-12.1-13.8-16.6-18.5c-4.5-4.7-8.8-9.9-9.6-11.6c-2.2-4.4-8.9-22.5-12.5-34
		c-9.1-29.1-9.3-29.7-7-31.2c1.7-1.1,11.2-5,16.8-7c2.5-0.9,7.4-3.2,11-5.2c34.1-18.9,42.8-19.9,88-9.3
		c20.6,4.8,36.1,11.6,50.7,22.4c2.9,2.1,5.6,3.8,6.1,3.8c1.3,0,16,10.6,19.9,14.3c3.2,3,3.9,4.8,8.1,19.2C1402,1.6,1404,8,1405.8,8
		c1.1,0,1.9-1.9,9.3-20.3c5.1-12.7,6.8-15.9,12.2-22.3c9-10.8,13.7-17.3,21.9-30.6c11.5-18.6,18.1-26.1,33.6-38.4
		c26.2-20.7,35.1-26.6,53.2-35.4c4.3-2.1,5.7-2.2,42.1-2.3l37.7-0.1l14.9,7.3c8.2,4,21.4,10.6,29.4,14.5c17.2,8.5,16.6,7.2,9.9,24.2
		c-4.6,11.5-5.7,13.2-22.3,32.6c-16.5,19.3-21.3,23.8-46.1,43.4c-2.2,1.7-12.3,8.8-22.5,15.6c-10.2,6.9-22.3,15.2-27,18.5
		c-4.9,3.4-12.6,7.6-18,9.8c-5.2,2.1-14.6,6.1-20.9,8.8c-11,4.8-11.6,5-17.9,4.3c-3.6-0.4-8.3-1.3-10.5-2.1
		c-2.2-0.8-5.2-1.4-6.6-1.4c-1.4,0-7.8-1.6-14.1-3.5c-6.3-1.9-13.8-4.1-16.5-4.9c-2.8-0.8-9.7-3-15.5-4.9
		c-12.6-4.2-21.3-6.7-23.1-6.7c-1.1,0-1.3,4.9-1,27.3c0.3,25.3,0.2,27.4-1.5,29.5c-1.7,2-2.9,2.2-17.8,2.6
		C1379.7,73.6,1368.9,73.5,1364.5,73.1z M2116.5-65c-1.6-0.5-8.2-1.6-14.5-2.5c-44.5-6.1-51-7.7-69-16.4
		c-12.1-5.8-21-11.3-30.9-19.1c-3.9-3-8.7-6.6-10.6-8c-7.7-5.3-16.3-12.8-24.9-21.5c-7.2-7.3-10.2-11.3-15-20
		c-3.3-6-7.5-13.6-9.3-17s-7.2-13.4-11.9-22.4l-8.6-16.4l-0.8-13.1c-3.7-59.9-5-84.7-4.2-85.9c0.7-1.2,9-0.2,16.5,1.9
		c3,0.8,7.9,2.1,10.9,2.8c6.7,1.5,12.9,3.4,33,9.7c15.5,4.9,17,5.6,45,21.9c6.9,4,22.6,14.2,40.3,26.2c10.9,7.4,16,12.5,35.9,35.9
		c7.8,9.3,7.4,8.2,16.7,45.9c6.9,28.2,7,28.7,8.2,49c0.6,11.3,1,27,0.8,35C2123.5-62.9,2123.5-62.9,2116.5-65z M2330-87.1
		c-14.1-0.6-20.5-1.3-23.1-2.4c-2-0.9-7.8-2.6-13-3.9c-5.2-1.3-12.8-3.3-16.9-4.4c-4.1-1.1-11.8-3.2-17-4.6
		c-5.2-1.4-10.4-3.2-11.6-4c-2-1.3-11.4-16.3-11.4-18.2c0-0.4-0.9-1.9-2-3.3c-3.7-4.7-2.7-6.6,9.6-20c6.4-6.9,14.2-16.1,17.5-20.5
		c34.9-47.1,82.8-101.6,117.4-133.6c16-14.8,21.5-18.9,37.6-28.2c14.2-8.2,24-12.9,41.5-20c20.1-8.1,23.9-9.3,34.4-10.6
		c4.7-0.6,13.9-2,20.5-3.1c15.1-2.5,40.8-6.7,50-8.1c3.8-0.6,11.7-2,17.5-3.1c14.1-2.7,38.9-5.7,53.1-6.5
		c10.8-0.6,11.6-0.5,12.3,1.3c1.5,3.8,1.9,34.4,0.7,46.2c-3.8,36.5-6.7,50.6-16.4,80.2c-11.7,35.5-24.3,62.8-34.5,74.7
		c-9.4,11-37.2,38.3-44.2,43.4c-11,8-84.8,38.6-98.9,41c-10.4,1.8-27.5,3.9-44,5.4c-9.1,0.8-20.6,2-25.5,2.5
		C2373.2-85.9,2357.9-85.9,2330-87.1z M2097-315.5c-0.6-0.7-1.5-6-2-11.7c-0.5-5.7-1.8-16.4-2.9-23.8c-4.4-28.4-3.5-50.7,2.7-69.1
		c3-9,11.8-27,17.3-35.7c1.8-2.9,4.4-7,5.7-9.2c2.8-4.5,11.8-12.1,23-19.1c11.2-7,17.3-9.9,39.1-18.5c10.7-4.2,20.4-8.3,21.6-9
		c3.1-2,8-2.4,39.9-3.6c15.9-0.6,37.6-1.4,48-1.9c14.5-0.6,19.3-0.5,20.3,0.4c2.8,2.7-7.4,48.6-13,58.4
		c-5.5,9.6-23.9,38.3-29.6,46.2c-10.5,14.3-11.8,15.5-25.2,22.7c-4.2,2.2-11.4,6.5-16,9.5c-4.6,3-9.1,5.8-9.9,6.1
		c-0.8,0.4-5.1,2.9-9.5,5.7c-4.4,2.7-10.7,6.3-14,8.1s-7.1,4-8.5,4.9c-4.3,3-37.2,20.1-48.5,25.2c-13.6,6.1-32.2,14-34.7,14.8
		C2098.9-314.4,2097.8-314.6,2097-315.5z M1793-323.2c-6.3-0.5-15.4-1.5-20.2-2.3c-9.3-1.5-12.4-3.1-34.3-18.2
		c-4.9-3.4-10.3-7.1-12-8.3c-1.7-1.1-7.3-4.9-12.5-8.4s-12-8.1-15-10.2s-8.7-5.6-12.7-7.7c-7.3-3.8-10.9-6.3-23.5-15.8
		c-8.6-6.5-9.7-8.6-21.9-42.1c-11.5-31.5-11.5-31.4-14.3-44.6c-3.4-15.8-6.9-66-7.1-101.4c-0.1-14.7,2.1-46,3.5-49.5
		c1-2.6,1.3-2.7,5.7-2c2.6,0.4,6.3,1.5,8.2,2.5c1.9,1,7.3,3.2,12,4.8c4.7,1.7,13,4.7,18.5,6.7c12.2,4.5,38.6,13.4,39.7,13.4
		c0.7,0,5.7,1.9,25.3,9.5c6.4,2.5,14.2,5.9,24,10.4c6.3,2.9,15.8,9.3,29.7,20c10.5,8.1,27.8,23,27.8,24c0,0.4,2.4,3.4,5.3,6.6
		c6.2,7,7.9,9.8,18.5,30.9c28.4,56.9,32.1,66.5,44.3,114.1c4.4,17,5.3,22.6,6.7,38.7c1.4,16.8,1.5,18.9,0.1,20.3
		c-1,1-5,1.9-10.9,2.5c-14.3,1.5-14.5,1.6-28.4,3.2C1816.4-321.7,1814-321.6,1793-323.2z M2016.8-534.8c-1.4-0.9-6.2-5.9-10.8-11
		c-4.6-5.1-9.2-9.9-10.3-10.5c-2.6-1.6-44.5-46.7-57.6-62.1c-9.2-10.8-16.5-20.5-29.9-39.9c-4.1-6-10.5-18.1-11.6-22.2
		c-0.3-1.1-1.9-5.6-3.6-10c-9.4-24.6-14.1-52.2-14.1-83.3c0-7.1,3.8-33.2,7-47.7c1.3-6.1,2.7-14,4.6-25.5
		c1.7-10.6,2.8-13.9,9.2-28.5c7.4-16.7,9.4-20.6,10.9-21.2c1.6-0.6,3.9-0.2,20.9,3.5c37.8,8.3,51.2,12.1,73.2,21
		c11.8,4.8,29.8,17.8,59,42.9c14.4,12.3,18.2,16.2,22.8,23.1c3.1,4.6,6,9.8,6.5,11.5c0.9,3.2,3.4,41.2,4.6,69.8
		c0.7,17,0.7,17.3-5.7,53.4c-3.4,19.6-4.5,23.5-9,34.5c-2.8,6.8-6.9,16.7-9,21.9c-7.3,17.8-16.8,34.6-28.8,51
		c-8.4,11.4-23.4,29.8-24.7,30.4C2019.8-533.4,2018.2-533.9,2016.8-534.8z"/>
	<path id="path2223" class="st1" d="M2136.5,1742.4c-1.7-0.2-22.6-0.8-46.5-1.3c-26.8-0.6-48.1-1.5-55.5-2.5
		c-21.9-2.7-49.7-5.6-75-7.6c-101.5-8.1-140.8-10.5-193.5-11.5c-30.1-0.6-45.9-1.5-48.3-2.7c-3.1-1.6-4,1.2,15.7-50.3
		c12.9-33.9,18.9-50.7,29.4-81.5c13.7-40.4,17.3-52.2,26.7-86c3.1-11.3,6.7-24.1,8-28.5c1.3-4.4,3-11.4,4-15.5s3.5-14.9,5.7-24
		c8.9-37.3,12.6-53.2,20.9-92c2.8-12.9,5.5-25.3,6-27.5c1.6-6.7,10.8-55.5,12-63.5c0.6-4.1,1.8-11.3,2.6-16
		c0.8-4.7,2.3-14.4,3.4-21.5c2.9-19.4,7.7-49.4,10-63c1.1-6.6,3.2-19,4.5-27.5c1.3-8.5,3.8-23.6,5.5-33.5c3.3-19.3,5.4-31.8,7.1-43
		c2.8-18,6.8-42.2,11.5-69.5c6.1-35.2,7.1-40.6,10.4-56c1.6-7.4,4-19.1,5.4-26c5.5-27.8,7.9-39.3,12.2-56.7
		c9.5-39,10.6-44.9,9.1-48.5c-0.8-2-6.2-7.6-13.3-13.9c-6.5-5.8-16.1-14.4-21.2-19c-5.1-4.6-12.6-11-16.5-14.2
		c-3.9-3.2-10.3-8.6-14.2-12.1s-10.8-9.3-15.5-13.1c-14.6-11.9-24.1-20-42.1-36c-3.7-3.3-10-8.7-14-12s-10-8.5-13.4-11.5
		s-12.6-10.9-20.5-17.5c-7.9-6.6-17.7-14.9-21.9-18.5c-4.2-3.6-12.3-10.3-18.1-15s-13.7-11.2-17.5-14.5
		c-3.9-3.3-13.1-11.2-20.5-17.5c-7.4-6.3-16.6-14.5-20.5-18.1c-3.9-3.6-8.6-7.8-10.5-9.3c-1.9-1.5-12.5-11.7-23.5-22.5
		c-11-10.8-28.6-27.6-39-37.3c-10.5-9.7-24.4-23.2-31-30s-14-14.2-16.3-16.4s-8.8-9.3-14.2-15.7c-5.5-6.4-10.9-12.4-12.2-13.2
		c-1.2-0.9-7.3-7-13.4-13.7c-10-10.9-11.3-12.8-12.8-18.3c-2.8-10.3-31.9-71.9-39.7-84.1c-9.5-14.8-15.3-24.5-17.5-29
		c-1.3-2.8-3.1-5.7-3.8-6.6c-0.8-0.9-4.5-7.7-8.4-15.3c-3.8-7.6-8.3-15.6-9.9-17.9c-1.6-2.3-5.5-9.2-8.7-15.2s-7.4-14-9.4-17.7
		c-2-3.7-3.3-7-2.9-7.4c0.7-0.7,5.1,1.8,24.6,14c18.7,11.7,20.2,12.7,35.1,23.4c7.9,5.7,15.7,11.3,17.4,12.5
		c6.2,4.3,18.5,15.3,36.6,32.6c29.4,28.1,48.7,46,59.5,55.1c10,8.5,11.7,9.9,29.4,24.3c5.3,4.3,12.7,10.4,16.5,13.5
		c9.8,8.1,26.4,20.8,34.7,26.7c3.9,2.8,11.7,8.4,17.2,12.5c22.9,16.9,35.4,25.4,44.5,30.4c26.9,14.7,43.1,23.9,58.1,32.6
		c24.8,14.5,39.7,23,40.3,23c0.3,0,4.1,2.1,8.4,4.6c11.5,6.8,56.5,23.5,87.8,32.5c7.7,2.2,18.5,5.6,24,7.4c11.6,3.9,27.5,8,35.7,9.3
		c4.8,0.7,6,0.6,7.1-0.7c0.7-0.9,2.4-7.7,3.8-15.1c2.2-12.6,2.4-15.5,2.1-42c-0.4-33.1-1.7-75.6-3.1-102
		c-0.6-10.2-1.5-27.9-2.1-39.4c-1-19.6-2.9-39-6.5-65.1c-1.5-10.8-2.7-17-6.7-35c-3.2-14.2-9.8-46.3-11.3-54.5
		c-5-27.7-10.9-47.1-21-69.5c-1.5-3.3-3.6-8-4.7-10.5c-4.3-9.6-20.8-42-25.8-50.5c-2.9-4.9-7.8-13.5-10.9-19
		c-3.1-5.5-7.2-12.5-9-15.5c-4.8-7.9-19-32-21-35.5c-5.8-10.3-12.5-21.7-15.2-26c-14.9-23.7-19.3-30.1-34.9-51
		c-30.6-40.9-32.7-43.5-48.4-60.5c-3.8-4.2-11-12.1-15.9-17.5c-16.5-18.5-33.1-36.8-40.2-44.4c-3.9-4.1-13.8-15.9-22.2-26
		s-22.3-25.9-31.2-35c-8.8-9.1-16.1-16.8-16.1-17.3c-0.1-1.2,1.9-0.9,12,1.8c23,6.1,45.1,14.5,58.5,22.2
		c18.6,10.6,22.3,12.8,27,16.3c2.8,2,7.4,4.9,10.3,6.4c6,3,8.2,5,45,40c21.6,20.5,69.6,70,96.1,99c3,3.3,8.9,9.7,13,14.1
		c4.1,4.5,12.7,13.9,19,21c16.5,18.4,34,37.6,43.9,48c4.7,5,15.4,16.7,23.8,26c14.3,15.9,47.7,49.8,58.8,59.7
		c8.6,7.7,12.9,12.1,16.9,17.8c2.2,3,5.3,7.1,7,9.1s6.3,8.1,10.2,13.5c4,5.4,8.2,10.9,9.3,12.2c2,2.1,2.3,2.2,3.9,0.7
		c1-0.9,3.7-4.8,6.1-8.8c3.7-6.2,7.4-11.4,20.5-28.9c17.4-23.2,46.1-55.2,52.9-58.8c2.2-1.2,2.8-1.1,4.5,0.4c1.1,1,2.6,3.6,3.4,5.9
		c0.8,2.3,4,11.6,7.2,20.6c3.1,9.1,7.9,22.3,10.6,29.3c2.7,7.1,4.9,14.1,4.9,15.7c0,2.1-2.2,5.7-8.2,13.2
		c-4.5,5.7-10,12.6-12.3,15.4c-2.2,2.8-6.5,8.2-9.5,11.9c-3,3.7-8.8,11.6-13,17.4c-4.2,5.8-10.1,14-13.3,18.1
		c-11.8,15.5-15.1,19.9-25.7,34.5c-15,20.7-14.5,19.6-13.7,33c0.4,6.1,1.4,17.3,2.2,25c1.8,16,1.4,56.9-0.6,68.9
		c-0.8,4.8-1.1,16.1-0.7,36.5l0.5,29.6l3.7,10.9c2,6,4.4,12.3,5.3,13.9c1.7,3.3,2,4.2,6.3,18.6c1.5,5.2,3.3,10.9,3.9,12.5
		c0.6,1.6,3.6,10.9,6.6,20.5c10.6,33.6,11.6,36,23.2,59.5c7.9,16,11.4,22,14.1,24.8c2,2,2.4,2,5.9,0.8c10-3.5,56.3-26.6,64.3-32.1
		c3.6-2.4,51.8-26.6,60.4-30.2c3.9-1.7,11-4.6,15.6-6.6c9.5-4,16.5-7.6,19.5-10.2c1.1-1,4.7-3.5,8-5.8c12.8-8.6,38.6-33.2,50.9-48.7
		c10.9-13.7,12.7-16.7,24.1-40.3c5.8-12,11.8-23.1,13.2-24.6c1.5-1.6,5.2-4,8.2-5.3c3-1.4,8.2-3.8,11.5-5.3
		c11.1-5.2,12.6-5.4,35.7-4.6l21.3,0.7l12.5,6.1c10.6,5.1,30.6,15.6,46.7,24.4c6.2,3.4,12.1,7.2,12.7,8.3c0.3,0.5-2.5,6-6.2,12.3
		c-3.7,6.3-8.5,14.8-10.6,18.9c-2.1,4.1-4.8,8.8-6,10.5s-4.1,6.8-6.5,11.5c-2.4,4.7-5.7,10.6-7.4,13.2c-5,7.7-23.3,33.5-32.1,45.3
		c-4.5,6.1-9.8,13.5-11.8,16.5c-2,3-4.7,6.8-5.9,8.4c-1.3,1.6-3.4,4.6-4.8,6.6c-2.5,3.7-6,8.7-10.2,14.6
		c-18.8,26.2-19.7,27.6-21.3,32.2c-1.3,3.6-5.2,8.3-21,24.8c-10,10.5-16.3,15.8-26.6,22.6c-3,2-9.5,6.5-14.4,10.1
		c-4.9,3.6-11,7.8-13.5,9.3c-9.4,5.7-18.1,11.2-35.7,22.9c-10,6.6-20.8,13.6-24,15.5s-12,7.7-19.6,12.8s-14,9.3-14.3,9.3
		c-0.9,0-17.8,10.2-19.9,12c-6.2,5.3-31.5,19.8-52.5,30c-8.5,4.1-16.1,7.9-16.9,8.4c-1.6,1-1.2,27.3,1.1,82.6
		c0.7,16.2,1.2,51.8,1.2,79c0,51.7-0.7,64.1-5.3,97.5c-2.8,20.1-6.9,55.9-11.7,102c-4.3,40.9-5.4,54.2-6.9,79
		c-0.8,13.2-1.9,31.9-2.5,41.5c-0.6,9.6-1.5,35.1-2,56.6s-1.4,50.5-1.9,64.5c-2.8,71.3-3.5,217.6-1.2,238.2
		c0.6,5.6,1.8,17.8,2.7,27.2c2.3,24.6,4.2,40.7,7.4,60.5c6.5,40.2,8.4,55.2,7.9,61.5l-0.3,4l-17,0.1
		C2147.1,1742.7,2138.1,1742.5,2136.5,1742.4z"/>
</g>
</svg>
